<?xml version="1.0" encoding="UTF-8" standalone="no"?>
<!DOCTYPE svg PUBLIC "-//W3C//DTD SVG 1.1//EN" "http://www.w3.org/Graphics/SVG/1.1/DTD/svg11.dtd">
<svg width="100%" height="100%" viewBox="0 0 1493 1489" version="1.1" xmlns="http://www.w3.org/2000/svg" xmlns:xlink="http://www.w3.org/1999/xlink" xml:space="preserve" xmlns:serif="http://www.serif.com/" style="fill-rule:evenodd;clip-rule:evenodd;stroke-linecap:round;stroke-linejoin:round;stroke-miterlimit:1.5;">
    <g id="Layer3">
    </g>
    <g id="Artboard1" transform="matrix(1,0,0,1,-361.331,-859.112)">
        <rect x="361.331" y="859.112" width="1492.87" height="1488.42" style="fill:none;"/>
        <g id="Layer1" transform="matrix(1,0,0,1,0.330594,0.111565)">
            <g transform="matrix(1,0,0,1,-70.9244,-139.884)">
                <circle cx="1188.31" cy="1731.62" r="680.93" style="fill:url(#_Linear1);"/>
            </g>
            <g transform="matrix(1.07581,0,0,1.07581,-279.762,-279.357)">
                <circle cx="1297.12" cy="1730.7" r="590.733" style="fill:none;stroke:url(#_Linear2);stroke-width:25.17px;"/>
            </g>
        </g>
        <g id="Layer2" transform="matrix(1,0,0,1,39.0508,135.903)">
            <g transform="matrix(0.2129,0,0,0.2129,1222.47,1291.78)">
                <g id="Layer21" serif:id="Layer2">
                    <clipPath id="_clip3">
                        <circle cx="-676.492" cy="721.191" r="2911.98"/>
                    </clipPath>
                    <g clip-path="url(#_clip3)">
                        <g transform="matrix(1,0,0,1,-2666.67,-2479.17)">
                            <clipPath id="_clip4">
                                <rect x="0" y="0" width="5333.33" height="4958.33"/>
                            </clipPath>
                            <g clip-path="url(#_clip4)">
                                <g transform="matrix(0.416667,0,0,-0.416667,0,4958.33)">
                                    <g>
                                        <path d="M11215,11889C9464,11784 7742,11017 5832,9493L5629,9331L5502,9365C5359,9405 5351,9405 5255,9385C5016,9335 4831,9145 4783,8901C4767,8823 4767,8812 4784,8731C4793,8684 4803,8638 4806,8629C4809,8617 4528,8348 3863,7723C3342,7234 2625,6560 2270,6226C1916,5892 1601,5603 1571,5583C1364,5445 1081,5436 856,5558C786,5596 668,5710 623,5783C487,6000 475,6230 586,6458C646,6581 715,6653 835,6720L925,6769L995,6267L1575,7005C1894,7411 2159,7749 2163,7756C2168,7764 2124,7753 2053,7729C1988,7706 1737,7621 1495,7538C701,7268 701,7268 545,7165C441,7096 269,6919 192,6803C-168,6253 0,5494 561,5142C973,4883 1519,4906 1909,5198C1938,5220 2313,5573 2743,5982C3173,6391 3860,7042 4270,7429C4680,7816 5042,8159 5075,8191L5135,8249L5248,8220C5375,8186 5435,8183 5524,8206C5701,8251 5847,8373 5924,8542C5979,8660 5988,8739 5964,8902L5958,8948L6181,9127C7881,10484 9389,11210 10890,11394C11237,11436 11723,11449 11955,11422C12143,11399 12609,11316 12773,11275L12800,11268L12800,11747L12748,11759C12508,11814 12129,11872 11890,11890C11735,11901 11419,11901 11215,11889Z" style="fill:rgb(226,0,116);fill-rule:nonzero;"/>
                                        <path d="M11995,6713C11791,6709 11268,6680 11005,6660C9543,6544 8192,6266 6955,5825C5926,5458 4986,4973 4331,4470C4177,4352 4152,4297 4210,4202C4227,4175 4256,4156 4353,4110C4420,4078 4691,3949 4955,3823C5219,3697 5676,3479 5970,3339C6565,3056 6578,3048 6599,2952C6620,2853 6572,2752 6483,2709L6435,2685L5184,2689C3821,2692 3889,2695 3863,2638C3840,2587 3856,2565 3994,2457C4350,2178 4757,1905 5175,1665C5401,1535 5917,1274 6160,1168C7614,529 9228,160 11100,40C11473,17 11690,9 12193,3L12720,-3L12720,6720L12418,6718C12251,6717 12061,6715 11995,6713ZM7654,4814C7742,4791 7824,4744 7889,4679C8062,4506 8093,4227 7962,4024C7714,3643 7129,3737 7015,4177C6970,4351 7021,4540 7150,4671C7283,4807 7473,4861 7654,4814Z" style="fill:rgb(226,0,116);fill-rule:nonzero;"/>
                                    </g>
                                </g>
                            </g>
                        </g>
                    </g>
                </g>
            </g>
        </g>
        <g transform="matrix(0.559308,0,0,0.559308,256.302,755.344)">
            <path d="M703.561,2137.29L703.561,1812.01L773.383,1812.01L773.383,1935.69L877.044,1935.69L877.044,1812.01L946.866,1812.01L946.866,2137.29L877.044,2137.29L877.044,1995.26L773.383,1995.26L773.383,2137.29L703.561,2137.29Z" style="fill:white;fill-rule:nonzero;"/>
            <path d="M1130.12,1804.62C1168.73,1804.62 1200.5,1818.6 1225.44,1846.56C1253.88,1878.18 1268.1,1920.91 1268.1,1974.77C1268.1,2020.84 1257.37,2059.37 1235.92,2090.35C1223.22,2108.62 1207.17,2122.6 1187.79,2132.29C1170.47,2140.87 1151.25,2145.16 1130.12,2145.16C1084.05,2145.16 1048.07,2126.49 1022.17,2089.15C1001.2,2058.97 990.714,2020.05 990.714,1972.39C990.714,1920.6 1004.3,1879.29 1031.46,1848.47C1057.2,1819.24 1090.09,1804.62 1130.12,1804.62ZM1129.64,1864.2C1108.04,1864.2 1091.36,1874.29 1079.6,1894.46C1066.89,1916.39 1060.54,1942.52 1060.54,1972.86C1060.54,2006.23 1066.81,2033.71 1079.36,2055.32C1084.6,2064.37 1091.91,2071.68 1101.29,2077.24C1110.66,2082.8 1120.35,2085.58 1130.36,2085.58C1139.89,2085.58 1148.91,2083.08 1157.4,2078.07C1165.9,2073.07 1172.78,2066.2 1178.02,2057.46C1191.52,2035.06 1198.27,2007.18 1198.27,1973.82C1198.27,1942.36 1192.08,1915.91 1179.69,1894.46C1167.93,1874.29 1151.25,1864.2 1129.64,1864.2Z" style="fill:white;fill-rule:nonzero;"/>
            <path d="M1439.67,1804.62C1478.28,1804.62 1510.05,1818.6 1534.99,1846.56C1563.43,1878.18 1577.65,1920.91 1577.65,1974.77C1577.65,2020.84 1566.93,2059.37 1545.48,2090.35C1532.77,2108.62 1516.72,2122.6 1497.34,2132.29C1480.03,2140.87 1460.8,2145.16 1439.67,2145.16C1393.6,2145.16 1357.62,2126.49 1331.72,2089.15C1310.75,2058.97 1300.27,2020.05 1300.27,1972.39C1300.27,1920.6 1313.85,1879.29 1341.02,1848.47C1366.75,1819.24 1399.64,1804.62 1439.67,1804.62ZM1439.2,1864.2C1417.59,1864.2 1400.91,1874.29 1389.15,1894.46C1376.44,1916.39 1370.09,1942.52 1370.09,1972.86C1370.09,2006.23 1376.36,2033.71 1388.91,2055.32C1394.16,2064.37 1401.46,2071.68 1410.84,2077.24C1420.21,2082.8 1429.9,2085.58 1439.91,2085.58C1449.44,2085.58 1458.46,2083.08 1466.96,2078.07C1475.46,2073.07 1482.33,2066.2 1487.57,2057.46C1501.08,2035.06 1507.83,2007.18 1507.83,1973.82C1507.83,1942.36 1501.63,1915.91 1489.24,1894.46C1477.48,1874.29 1460.8,1864.2 1439.2,1864.2Z" style="fill:white;fill-rule:nonzero;"/>
            <path d="M1621.5,2137.29L1621.5,1812.01L1691.32,1812.01L1691.32,1934.97L1788.07,1812.01L1865.99,1812.01L1755.18,1946.17L1875.05,2137.29L1796.89,2137.29L1711.1,2000.03L1691.32,2023.86L1691.32,2137.29L1621.5,2137.29Z" style="fill:white;fill-rule:nonzero;"/>
            <path d="M1902.69,2137.29L1902.69,1812.01L2110.25,1812.01L2110.25,1871.59L1972.51,1871.59L1972.51,1941.17L2098.34,1941.17L2098.34,1997.88L1972.51,1997.88L1972.51,2077.72L2113.11,2077.72L2113.11,2137.29L1902.69,2137.29Z" style="fill:white;fill-rule:nonzero;"/>
            <path d="M2161.25,2137.29L2161.25,1812.01L2261.57,1812.01C2305.74,1812.01 2340.45,1823.77 2365.71,1847.28C2396.69,1875.88 2412.18,1917.97 2412.18,1973.58C2412.18,2027.91 2397.56,2070.01 2368.33,2099.88C2352.45,2116.24 2334.1,2126.89 2313.28,2131.81C2298.51,2135.46 2281.19,2137.29 2261.34,2137.29L2161.25,2137.29ZM2231.07,2077.72L2262.29,2077.72C2287.07,2077.72 2305.1,2071.84 2316.38,2060.08C2333.7,2041.81 2342.36,2012.9 2342.36,1973.34C2342.36,1940.61 2335.05,1914.96 2320.43,1896.37C2307.57,1879.85 2287.55,1871.59 2260.38,1871.59L2231.07,1871.59L2231.07,2077.72Z" style="fill:white;fill-rule:nonzero;"/>
        </g>
    </g>
    <defs>
        <linearGradient id="_Linear1" x1="0" y1="0" x2="1" y2="0" gradientUnits="userSpaceOnUse" gradientTransform="matrix(1361.86,0,0,1361.86,507.378,1731.62)"><stop offset="0" style="stop-color:rgb(105,0,54);stop-opacity:1"/><stop offset="0.57" style="stop-color:rgb(42,0,22);stop-opacity:1"/><stop offset="1" style="stop-color:rgb(14,0,7);stop-opacity:1"/></linearGradient>
        <linearGradient id="_Linear2" x1="0" y1="0" x2="1" y2="0" gradientUnits="userSpaceOnUse" gradientTransform="matrix(1181.47,0,0,1181.47,706.39,1730.7)"><stop offset="0" style="stop-color:rgb(226,0,116);stop-opacity:0.62"/><stop offset="0.52" style="stop-color:rgb(173,0,89);stop-opacity:0.71"/><stop offset="1" style="stop-color:black;stop-opacity:1"/></linearGradient>
    </defs>
</svg>
